<svg xmlns="http://www.w3.org/2000/svg" width="1200" height="1190" viewBox="0 0 1200 1190">
<title>图5 生成后验证、修复与复验</title>
<desc>中文学术流程图。圆角矩形为处理步骤，矩形为结构化数据，折角文件为文档，菱形为判断。实线箭头为数据流，虚线箭头为控制流；无箭头线为明确标注的信息关联。</desc>
<rect width="100%" height="100%" fill="#FFFFFF"/>
<text x="25" y="34.0" font-family="Microsoft YaHei, SimHei, Arial, sans-serif" font-size="27" font-weight="700" text-anchor="start" fill="#111111">(a) 验证与验收</text>
<path d="M255 155 L315 155" stroke="#333333" stroke-width="1.8" fill="none" stroke-linejoin="miter"/>
<path d="M305.0 160.0 L315 155 L305.0 150.0" stroke="#333333" stroke-width="1.8" fill="none"/>
<path d="M550 155 L650 155" stroke="#333333" stroke-width="1.8" fill="none" stroke-linejoin="miter"/>
<path d="M640.0 160.0 L650 155 L640.0 150.0" stroke="#333333" stroke-width="1.8" fill="none"/>
<text x="600" y="139.0" font-family="Microsoft YaHei, SimHei, Arial, sans-serif" font-size="23" font-weight="400" text-anchor="middle" fill="#111111">检查结果</text>
<path d="M900 155 L950 155" stroke="#333333" stroke-width="1.8" fill="none" stroke-linejoin="miter" stroke-dasharray="8 6"/>
<path d="M940.0 160.0 L950 155 L940.0 150.0" stroke="#333333" stroke-width="1.8" fill="none"/>
<text x="925" y="139.0" font-family="Microsoft YaHei, SimHei, Arial, sans-serif" font-size="23" font-weight="400" text-anchor="middle" fill="#111111">是</text>
<path d="M775 235 L775 315" stroke="#333333" stroke-width="1.8" fill="none" stroke-linejoin="miter" stroke-dasharray="8 6"/>
<path d="M770.0 305.0 L775 315 L780.0 305.0" stroke="#333333" stroke-width="1.8" fill="none"/>
<text x="800" y="270.0" font-family="Microsoft YaHei, SimHei, Arial, sans-serif" font-size="23" font-weight="400" text-anchor="middle" fill="#111111">否</text>
<path d="M650 360 L550 360" stroke="#333333" stroke-width="1.8" fill="none" stroke-linejoin="miter" stroke-dasharray="8 6"/>
<path d="M560.0 355.0 L550 360 L560.0 365.0" stroke="#333333" stroke-width="1.8" fill="none"/>
<text x="600" y="337.0" font-family="Microsoft YaHei, SimHei, Arial, sans-serif" font-size="23" font-weight="400" text-anchor="middle" fill="#111111">检查失败</text>
<path d="M900 360 L920 360 L920 290 L1062.5 290 L1062.5 315" stroke="#333333" stroke-width="1.8" fill="none" stroke-linejoin="miter" stroke-dasharray="8 6"/>
<path d="M1057.5 305.0 L1062.5 315 L1067.5 305.0" stroke="#333333" stroke-width="1.8" fill="none"/>
<text x="1000" y="278.0" font-family="Microsoft YaHei, SimHei, Arial, sans-serif" font-size="23" font-weight="400" text-anchor="middle" fill="#111111">缺失或未完成</text>
<rect x="25" y="105" width="230" height="100" rx="0" fill="#FFFFFF" stroke="#333333" stroke-width="1.8"/>
<text x="140.0" y="146.875" font-family="Microsoft YaHei, SimHei, Arial, sans-serif" font-size="25" font-weight="400" text-anchor="middle" fill="#111111">候选模型</text>
<text x="140.0" y="180.625" font-family="Microsoft YaHei, SimHei, Arial, sans-serif" font-size="25" font-weight="400" text-anchor="middle" fill="#111111">与序列化制品</text>
<rect x="315" y="110" width="235" height="90" rx="14" fill="#E6E6E6" stroke="#333333" stroke-width="1.8"/>
<text x="432.5" y="146.875" font-family="Microsoft YaHei, SimHei, Arial, sans-serif" font-size="25" font-weight="700" text-anchor="middle" fill="#111111">L2</text>
<text x="432.5" y="180.625" font-family="Microsoft YaHei, SimHei, Arial, sans-serif" font-size="25" font-weight="700" text-anchor="middle" fill="#111111">执行必需检查</text>
<path d="M775.0 75 L900 155.0 L775.0 235 L650 155.0 Z" fill="#FFFFFF" stroke="#333333" stroke-width="1.8"/>
<text x="775.0" y="147.525" font-family="Microsoft YaHei, SimHei, Arial, sans-serif" font-size="23" font-weight="400" text-anchor="middle" fill="#111111">必需检查均</text>
<text x="775.0" y="178.57500000000002" font-family="Microsoft YaHei, SimHei, Arial, sans-serif" font-size="23" font-weight="400" text-anchor="middle" fill="#111111">完成且通过？</text>
<rect x="950" y="115" width="225" height="80" rx="14" fill="#E6E6E6" stroke="#333333" stroke-width="1.8"/>
<text x="1062.5" y="163.75" font-family="Microsoft YaHei, SimHei, Arial, sans-serif" font-size="25" font-weight="400" text-anchor="middle" fill="#111111">验收并记录结果</text>
<rect x="650" y="315" width="250" height="90" rx="14" fill="#E6E6E6" stroke="#333333" stroke-width="1.8"/>
<text x="775.0" y="351.875" font-family="Microsoft YaHei, SimHei, Arial, sans-serif" font-size="25" font-weight="400" text-anchor="middle" fill="#111111">分类记录失败</text>
<text x="775.0" y="385.625" font-family="Microsoft YaHei, SimHei, Arial, sans-serif" font-size="25" font-weight="400" text-anchor="middle" fill="#111111">与未完成项</text>
<rect x="315" y="315" width="235" height="90" rx="14" fill="#E6E6E6" stroke="#333333" stroke-width="1.8"/>
<text x="432.5" y="351.875" font-family="Microsoft YaHei, SimHei, Arial, sans-serif" font-size="25" font-weight="400" text-anchor="middle" fill="#111111">定位失败项</text>
<text x="432.5" y="385.625" font-family="Microsoft YaHei, SimHei, Arial, sans-serif" font-size="25" font-weight="400" text-anchor="middle" fill="#111111">进入(b)修复</text>
<rect x="950" y="315" width="225" height="90" rx="14" fill="#E6E6E6" stroke="#333333" stroke-width="1.8"/>
<text x="1062.5" y="351.875" font-family="Microsoft YaHei, SimHei, Arial, sans-serif" font-size="25" font-weight="400" text-anchor="middle" fill="#111111">记录覆盖缺口</text>
<text x="1062.5" y="385.625" font-family="Microsoft YaHei, SimHei, Arial, sans-serif" font-size="25" font-weight="400" text-anchor="middle" fill="#111111">交由人工处理</text>
<path d="M25 480 H1175" stroke="#BBBBBB" stroke-width="1" fill="none"/>
<text x="25" y="518.0" font-family="Microsoft YaHei, SimHei, Arial, sans-serif" font-size="27" font-weight="700" text-anchor="start" fill="#111111">(b) 修复与复验</text>
<path d="M255 640 L325 640" stroke="#333333" stroke-width="1.8" fill="none" stroke-linejoin="miter"/>
<path d="M315.0 645.0 L325 640 L315.0 635.0" stroke="#333333" stroke-width="1.8" fill="none"/>
<path d="M575 640 L650 640" stroke="#333333" stroke-width="1.8" fill="none" stroke-linejoin="miter" stroke-dasharray="8 6"/>
<path d="M640.0 645.0 L650 640 L640.0 635.0" stroke="#333333" stroke-width="1.8" fill="none"/>
<text x="612" y="623.0" font-family="Microsoft YaHei, SimHei, Arial, sans-serif" font-size="23" font-weight="400" text-anchor="middle" fill="#111111">是</text>
<path d="M880 640 L925 640" stroke="#333333" stroke-width="1.8" fill="none" stroke-linejoin="miter"/>
<path d="M915.0 645.0 L925 640 L915.0 635.0" stroke="#333333" stroke-width="1.8" fill="none"/>
<path d="M1035 685 L1035 760" stroke="#333333" stroke-width="1.8" fill="none" stroke-linejoin="miter"/>
<path d="M1030.0 750.0 L1035 760 L1040.0 750.0" stroke="#333333" stroke-width="1.8" fill="none"/>
<path d="M925 835 L880 835" stroke="#333333" stroke-width="1.8" fill="none" stroke-linejoin="miter" stroke-dasharray="8 6"/>
<path d="M890.0 830.0 L880 835 L890.0 840.0" stroke="#333333" stroke-width="1.8" fill="none"/>
<text x="903" y="818.0" font-family="Microsoft YaHei, SimHei, Arial, sans-serif" font-size="23" font-weight="400" text-anchor="middle" fill="#111111">是</text>
<path d="M1145 835 L1175 835 L1175 545 L450 545 L450 565" stroke="#333333" stroke-width="1.8" fill="none" stroke-linejoin="miter" stroke-dasharray="8 6"/>
<path d="M445.0 555.0 L450 565 L455.0 555.0" stroke="#333333" stroke-width="1.8" fill="none"/>
<text x="800" y="531.0" font-family="Microsoft YaHei, SimHei, Arial, sans-serif" font-size="23" font-weight="400" text-anchor="middle" fill="#111111">否：保留失败状态</text>
<path d="M450 715 L450 955" stroke="#333333" stroke-width="1.8" fill="none" stroke-linejoin="miter" stroke-dasharray="8 6"/>
<path d="M445.0 945.0 L450 955 L455.0 945.0" stroke="#333333" stroke-width="1.8" fill="none"/>
<text x="475" y="835.0" font-family="Microsoft YaHei, SimHei, Arial, sans-serif" font-size="23" font-weight="400" text-anchor="middle" fill="#111111">否</text>
<path d="M765 880 L765 955" stroke="#333333" stroke-width="1.8" fill="none" stroke-linejoin="miter"/>
<path d="M760.0 945.0 L765 955 L770.0 945.0" stroke="#333333" stroke-width="1.8" fill="none"/>
<path d="M880 1000 L925 1000" stroke="#333333" stroke-width="1.8" fill="none" stroke-linejoin="miter"/>
<path d="M915.0 1005.0 L925 1000 L915.0 995.0" stroke="#333333" stroke-width="1.8" fill="none"/>
<path d="M1145 1000 L1190 1000 L1190 55 L432.5 55 L432.5 110" stroke="#333333" stroke-width="1.8" fill="none" stroke-linejoin="miter"/>
<path d="M427.5 100.0 L432.5 110 L437.5 100.0" stroke="#333333" stroke-width="1.8" fill="none"/>
<text x="950" y="39.0" font-family="Microsoft YaHei, SimHei, Arial, sans-serif" font-size="23" font-weight="400" text-anchor="middle" fill="#111111">修订后的模型与制品返回 L2</text>
<rect x="25" y="595" width="230" height="90" rx="0" fill="#FFFFFF" stroke="#333333" stroke-width="1.8"/>
<text x="140.0" y="631.875" font-family="Microsoft YaHei, SimHei, Arial, sans-serif" font-size="25" font-weight="400" text-anchor="middle" fill="#111111">失败项</text>
<text x="140.0" y="665.625" font-family="Microsoft YaHei, SimHei, Arial, sans-serif" font-size="25" font-weight="400" text-anchor="middle" fill="#111111">与任务上下文</text>
<path d="M450.0 565 L575 640.0 L450.0 715 L325 640.0 Z" fill="#FFFFFF" stroke="#333333" stroke-width="1.8"/>
<text x="450.0" y="632.525" font-family="Microsoft YaHei, SimHei, Arial, sans-serif" font-size="23" font-weight="400" text-anchor="middle" fill="#111111">允许修改且</text>
<text x="450.0" y="663.5749999999999" font-family="Microsoft YaHei, SimHei, Arial, sans-serif" font-size="23" font-weight="400" text-anchor="middle" fill="#111111">未达上限？</text>
<rect x="650" y="595" width="230" height="90" rx="14" fill="#E6E6E6" stroke="#333333" stroke-width="1.8"/>
<text x="765.0" y="631.875" font-family="Microsoft YaHei, SimHei, Arial, sans-serif" font-size="25" font-weight="400" text-anchor="middle" fill="#111111">LLM 提出</text>
<text x="765.0" y="665.625" font-family="Microsoft YaHei, SimHei, Arial, sans-serif" font-size="25" font-weight="400" text-anchor="middle" fill="#111111">结构化修改</text>
<rect x="925" y="595" width="220" height="90" rx="0" fill="#FFFFFF" stroke="#333333" stroke-width="1.8"/>
<text x="1035.0" y="648.75" font-family="Microsoft YaHei, SimHei, Arial, sans-serif" font-size="25" font-weight="400" text-anchor="middle" fill="#111111">修改建议</text>
<path d="M1035.0 760 L1145 835.0 L1035.0 910 L925 835.0 Z" fill="#FFFFFF" stroke="#333333" stroke-width="1.8"/>
<text x="1035.0" y="827.525" font-family="Microsoft YaHei, SimHei, Arial, sans-serif" font-size="23" font-weight="400" text-anchor="middle" fill="#111111">修改符合</text>
<text x="1035.0" y="858.5749999999999" font-family="Microsoft YaHei, SimHei, Arial, sans-serif" font-size="23" font-weight="400" text-anchor="middle" fill="#111111">允许操作？</text>
<rect x="650" y="790" width="230" height="90" rx="14" fill="#E6E6E6" stroke="#333333" stroke-width="1.8"/>
<text x="765.0" y="843.75" font-family="Microsoft YaHei, SimHei, Arial, sans-serif" font-size="25" font-weight="400" text-anchor="middle" fill="#111111">应用合规修改</text>
<rect x="650" y="955" width="230" height="90" rx="14" fill="#E6E6E6" stroke="#333333" stroke-width="1.8"/>
<text x="765.0" y="1008.75" font-family="Microsoft YaHei, SimHei, Arial, sans-serif" font-size="25" font-weight="400" text-anchor="middle" fill="#111111">重建模型与制品</text>
<rect x="925" y="955" width="220" height="90" rx="0" fill="#FFFFFF" stroke="#333333" stroke-width="1.8"/>
<text x="1035.0" y="991.875" font-family="Microsoft YaHei, SimHei, Arial, sans-serif" font-size="25" font-weight="400" text-anchor="middle" fill="#111111">修订后的</text>
<text x="1035.0" y="1025.625" font-family="Microsoft YaHei, SimHei, Arial, sans-serif" font-size="25" font-weight="400" text-anchor="middle" fill="#111111">模型与制品</text>
<rect x="300" y="955" width="285" height="90" rx="14" fill="#E6E6E6" stroke="#333333" stroke-width="1.8"/>
<text x="442.5" y="991.875" font-family="Microsoft YaHei, SimHei, Arial, sans-serif" font-size="25" font-weight="400" text-anchor="middle" fill="#111111">记录未解决事项</text>
<text x="442.5" y="1025.625" font-family="Microsoft YaHei, SimHei, Arial, sans-serif" font-size="25" font-weight="400" text-anchor="middle" fill="#111111">交由人工处理</text>
<text x="25" y="1090.0" font-family="Microsoft YaHei, SimHei, Arial, sans-serif" font-size="23" font-weight="400" text-anchor="start" fill="#111111">人工补全后重新检查；需求、规则或模型变化时，更新任务绑定或制品并复验。</text>
<path d="M25 1130 H1175" stroke="#BBBBBB" stroke-width="1" fill="none"/>
<text x="25" y="1167.0" font-family="Microsoft YaHei, SimHei, Arial, sans-serif" font-size="21" font-weight="700" text-anchor="start" fill="#111111">图例</text>
<rect x="100" y="1144" width="62" height="38" rx="14" fill="#E6E6E6" stroke="#333333" stroke-width="1.8"/>
<text x="131.0" y="1169.3" font-family="Microsoft YaHei, SimHei, Arial, sans-serif" font-size="18" font-weight="400" text-anchor="middle" fill="#111111"></text>
<text x="176" y="1170.0" font-family="Microsoft YaHei, SimHei, Arial, sans-serif" font-size="21" font-weight="400" text-anchor="start" fill="#111111">处理</text>
<rect x="287" y="1144" width="62" height="38" rx="0" fill="#FFFFFF" stroke="#333333" stroke-width="1.8"/>
<text x="318.0" y="1169.3" font-family="Microsoft YaHei, SimHei, Arial, sans-serif" font-size="18" font-weight="400" text-anchor="middle" fill="#111111"></text>
<text x="363" y="1170.0" font-family="Microsoft YaHei, SimHei, Arial, sans-serif" font-size="21" font-weight="400" text-anchor="start" fill="#111111">数据</text>
<path d="M474 1144 H525.46 L536 1154.54 V1182 H474 Z M525.46 1144 V1154.54 H536" fill="#FFFFFF" stroke="#333333" stroke-width="1.8"/>
<text x="505.0" y="1173.3" font-family="Microsoft YaHei, SimHei, Arial, sans-serif" font-size="18" font-weight="400" text-anchor="middle" fill="#111111"></text>
<text x="550" y="1170.0" font-family="Microsoft YaHei, SimHei, Arial, sans-serif" font-size="21" font-weight="400" text-anchor="start" fill="#111111">文档</text>
<path d="M692.0 1144 L723 1163.0 L692.0 1182 L661 1163.0 Z" fill="#FFFFFF" stroke="#333333" stroke-width="1.8"/>
<text x="692.0" y="1169.3" font-family="Microsoft YaHei, SimHei, Arial, sans-serif" font-size="18" font-weight="400" text-anchor="middle" fill="#111111"></text>
<text x="737" y="1170.0" font-family="Microsoft YaHei, SimHei, Arial, sans-serif" font-size="21" font-weight="400" text-anchor="start" fill="#111111">判断</text>
<path d="M855 1161 L920 1161" stroke="#333333" stroke-width="1.8" fill="none" stroke-linejoin="miter"/>
<path d="M910.0 1166.0 L920 1161 L910.0 1156.0" stroke="#333333" stroke-width="1.8" fill="none"/>
<text x="935" y="1170.0" font-family="Microsoft YaHei, SimHei, Arial, sans-serif" font-size="21" font-weight="400" text-anchor="start" fill="#111111">数据流</text>
<path d="M1030 1161 L1095 1161" stroke="#333333" stroke-width="1.8" fill="none" stroke-linejoin="miter" stroke-dasharray="8 6"/>
<path d="M1085.0 1166.0 L1095 1161 L1085.0 1156.0" stroke="#333333" stroke-width="1.8" fill="none"/>
<text x="1110" y="1170.0" font-family="Microsoft YaHei, SimHei, Arial, sans-serif" font-size="21" font-weight="400" text-anchor="start" fill="#111111">控制流</text>
<text x="25" y="452.0" font-family="Microsoft YaHei, SimHei, Arial, sans-serif" font-size="23" font-weight="400" text-anchor="start" fill="#111111">检查失败与覆盖缺口可能同时存在，分别处理；任何未通过事项均阻止验收。</text>
</svg>